<svg width="195" height="40" viewBox="0 0 195 40" fill="none" xmlns="http://www.w3.org/2000/svg">
<g id="location">
<g id="Group">
<path id="Combined-Shape" fill-rule="evenodd" clip-rule="evenodd" d="M15 27.2859L19.2392 22.9636C21.5869 20.5699 21.5869 16.685 19.2392 14.2912C16.8968 11.9029 13.1032 11.9029 10.7608 14.2912C8.41308 16.685 8.41308 20.5699 10.7608 22.9636L15 27.2859Z" stroke="#262626"/>
<path id="Oval-3" fill-rule="evenodd" clip-rule="evenodd" d="M15 20.5C16.1046 20.5 17 19.6046 17 18.5C17 17.3954 16.1046 16.5 15 16.5C13.8954 16.5 13 17.3954 13 18.5C13 19.6046 13.8954 20.5 15 20.5Z" stroke="#262626"/>
</g>
<path id="Rectangle 8 Copy" d="M0.5 2C0.5 1.17157 1.17157 0.5 2 0.5H193C193.828 0.5 194.5 1.17157 194.5 2V38C194.5 38.8284 193.828 39.5 193 39.5H2C1.17157 39.5 0.5 38.8284 0.5 38V2Z" stroke="#E0E0E0"/>
<path id="ul. Bolshaya Dmitrov" d="M39.6445 20.6045H35.4678V25H34.1553V15.0469H40.3213V16.127H35.4678V19.5312H39.6445V20.6045ZM41.21 21.2334C41.21 20.5088 41.3512 19.8571 41.6338 19.2783C41.9209 18.6995 42.3174 18.2529 42.8232 17.9385C43.3337 17.624 43.9147 17.4668 44.5664 17.4668C45.5736 17.4668 46.387 17.8154 47.0068 18.5127C47.6312 19.21 47.9434 20.1374 47.9434 21.2949V21.3838C47.9434 22.1038 47.8044 22.751 47.5264 23.3252C47.2529 23.8949 46.8587 24.3392 46.3438 24.6582C45.8333 24.9772 45.2454 25.1367 44.5801 25.1367C43.5775 25.1367 42.764 24.7881 42.1396 24.0908C41.5199 23.3936 41.21 22.4707 41.21 21.3223V21.2334ZM42.4814 21.3838C42.4814 22.2041 42.6706 22.8626 43.0488 23.3594C43.4316 23.8561 43.9421 24.1045 44.5801 24.1045C45.2227 24.1045 45.7331 23.8538 46.1113 23.3525C46.4896 22.8467 46.6787 22.1403 46.6787 21.2334C46.6787 20.4222 46.485 19.766 46.0977 19.2646C45.7148 18.7588 45.2044 18.5059 44.5664 18.5059C43.9421 18.5059 43.4385 18.7542 43.0557 19.251C42.6729 19.7477 42.4814 20.4587 42.4814 21.3838ZM53.8359 23.0381C53.8359 22.6963 53.7061 22.432 53.4463 22.2451C53.1911 22.0537 52.7422 21.8896 52.0996 21.7529C51.4616 21.6162 50.9535 21.4521 50.5752 21.2607C50.2015 21.0693 49.9235 20.8415 49.7412 20.5771C49.5635 20.3128 49.4746 19.9984 49.4746 19.6338C49.4746 19.0277 49.7298 18.515 50.2402 18.0957C50.7552 17.6764 51.4115 17.4668 52.209 17.4668C53.0475 17.4668 53.7266 17.6833 54.2461 18.1162C54.7702 18.5492 55.0322 19.1029 55.0322 19.7773H53.7607C53.7607 19.431 53.6126 19.1325 53.3164 18.8818C53.0247 18.6312 52.6556 18.5059 52.209 18.5059C51.7487 18.5059 51.3887 18.6061 51.1289 18.8066C50.8691 19.0072 50.7393 19.2692 50.7393 19.5928C50.7393 19.8981 50.86 20.1283 51.1016 20.2832C51.3431 20.4382 51.7783 20.5863 52.4072 20.7275C53.0407 20.8688 53.5534 21.0374 53.9453 21.2334C54.3372 21.4294 54.6266 21.6663 54.8135 21.9443C55.0049 22.2178 55.1006 22.5527 55.1006 22.9492C55.1006 23.61 54.8363 24.141 54.3076 24.542C53.779 24.9385 53.0931 25.1367 52.25 25.1367C51.6576 25.1367 51.1335 25.0319 50.6777 24.8223C50.222 24.6126 49.8643 24.321 49.6045 23.9473C49.3493 23.569 49.2217 23.1611 49.2217 22.7236H50.4863C50.5091 23.1475 50.6777 23.4847 50.9922 23.7354C51.3112 23.9814 51.7305 24.1045 52.25 24.1045C52.7285 24.1045 53.1113 24.0088 53.3984 23.8174C53.6901 23.6214 53.8359 23.3617 53.8359 23.0381ZM58.4639 15.8125V17.6035H59.8447V18.5811H58.4639V23.168C58.4639 23.4642 58.5254 23.6875 58.6484 23.8379C58.7715 23.9837 58.9811 24.0566 59.2773 24.0566C59.4232 24.0566 59.6237 24.0293 59.8789 23.9746V25C59.5462 25.0911 59.2227 25.1367 58.9082 25.1367C58.3431 25.1367 57.917 24.9658 57.6299 24.624C57.3428 24.2822 57.1992 23.7969 57.1992 23.168V18.5811H55.8525V17.6035H57.1992V15.8125H58.4639ZM64.3975 25.1367C63.3949 25.1367 62.5791 24.8086 61.9502 24.1523C61.3213 23.4915 61.0068 22.6097 61.0068 21.5068V21.2744C61.0068 20.5407 61.1458 19.8867 61.4238 19.3125C61.7064 18.7337 62.0983 18.2826 62.5996 17.959C63.1055 17.6309 63.6523 17.4668 64.2402 17.4668C65.2018 17.4668 65.9492 17.7835 66.4824 18.417C67.0156 19.0505 67.2822 19.9574 67.2822 21.1377V21.6641H62.2715C62.2897 22.3932 62.5016 22.9834 62.9072 23.4346C63.3174 23.8812 63.8369 24.1045 64.4658 24.1045C64.9124 24.1045 65.2907 24.0133 65.6006 23.8311C65.9105 23.6488 66.1816 23.4072 66.4141 23.1064L67.1865 23.708C66.5667 24.6605 65.637 25.1367 64.3975 25.1367ZM64.2402 18.5059C63.7298 18.5059 63.3014 18.6927 62.9551 19.0664C62.6087 19.4355 62.3945 19.9551 62.3125 20.625H66.0176V20.5293C65.9811 19.8867 65.8079 19.39 65.498 19.0391C65.1882 18.6836 64.7689 18.5059 64.2402 18.5059ZM72.3271 18.7383C72.1357 18.7064 71.9284 18.6904 71.7051 18.6904C70.8757 18.6904 70.3128 19.0436 70.0166 19.75V25H68.752V17.6035H69.9824L70.0029 18.458C70.4176 17.7972 71.0055 17.4668 71.7666 17.4668C72.0127 17.4668 72.1995 17.4987 72.3271 17.5625V18.7383ZM78.4863 23.9268H83.2031V25H77.167V15.0469H78.4863V23.9268ZM89.0684 25C88.9954 24.8542 88.9362 24.5944 88.8906 24.2207C88.3027 24.8314 87.6009 25.1367 86.7852 25.1367C86.056 25.1367 85.4567 24.9316 84.9873 24.5215C84.5225 24.1068 84.29 23.5827 84.29 22.9492C84.29 22.179 84.5817 21.582 85.165 21.1582C85.7529 20.7298 86.5778 20.5156 87.6396 20.5156H88.8701V19.9346C88.8701 19.4925 88.738 19.1416 88.4736 18.8818C88.2093 18.6175 87.8197 18.4854 87.3047 18.4854C86.8535 18.4854 86.4753 18.5993 86.1699 18.8271C85.8646 19.055 85.7119 19.3307 85.7119 19.6543H84.4404C84.4404 19.2852 84.5703 18.9297 84.8301 18.5879C85.0944 18.2415 85.4499 17.9681 85.8965 17.7676C86.3477 17.5671 86.8421 17.4668 87.3799 17.4668C88.2321 17.4668 88.8997 17.681 89.3828 18.1094C89.8659 18.5332 90.1165 19.1188 90.1348 19.8662V23.2705C90.1348 23.9495 90.2214 24.4896 90.3945 24.8906V25H89.0684ZM86.9697 24.0361C87.3662 24.0361 87.7422 23.9336 88.0977 23.7285C88.4531 23.5234 88.7106 23.2568 88.8701 22.9287V21.4111H87.8789C86.3294 21.4111 85.5547 21.8646 85.5547 22.7715C85.5547 23.168 85.6868 23.4779 85.9512 23.7012C86.2155 23.9245 86.555 24.0361 86.9697 24.0361ZM93.3135 17.6035L93.3545 18.5332C93.9196 17.8223 94.6579 17.4668 95.5693 17.4668C97.1325 17.4668 97.9209 18.3486 97.9346 20.1123V25H96.6699V20.1055C96.6654 19.5723 96.5423 19.1781 96.3008 18.9229C96.0638 18.6676 95.6924 18.54 95.1865 18.54C94.7764 18.54 94.4163 18.6494 94.1064 18.8682C93.7965 19.0869 93.555 19.374 93.3818 19.7295V25H92.1172V17.6035H93.3135ZM102.911 25.1367C101.909 25.1367 101.093 24.8086 100.464 24.1523C99.835 23.4915 99.5205 22.6097 99.5205 21.5068V21.2744C99.5205 20.5407 99.6595 19.8867 99.9375 19.3125C100.22 18.7337 100.612 18.2826 101.113 17.959C101.619 17.6309 102.166 17.4668 102.754 17.4668C103.715 17.4668 104.463 17.7835 104.996 18.417C105.529 19.0505 105.796 19.9574 105.796 21.1377V21.6641H100.785C100.803 22.3932 101.015 22.9834 101.421 23.4346C101.831 23.8812 102.351 24.1045 102.979 24.1045C103.426 24.1045 103.804 24.0133 104.114 23.8311C104.424 23.6488 104.695 23.4072 104.928 23.1064L105.7 23.708C105.08 24.6605 104.151 25.1367 102.911 25.1367ZM102.754 18.5059C102.243 18.5059 101.815 18.6927 101.469 19.0664C101.122 19.4355 100.908 19.9551 100.826 20.625H104.531V20.5293C104.495 19.8867 104.322 19.39 104.012 19.0391C103.702 18.6836 103.283 18.5059 102.754 18.5059ZM115.045 23.0381C115.045 22.6963 114.915 22.432 114.655 22.2451C114.4 22.0537 113.951 21.8896 113.309 21.7529C112.671 21.6162 112.162 21.4521 111.784 21.2607C111.41 21.0693 111.132 20.8415 110.95 20.5771C110.772 20.3128 110.684 19.9984 110.684 19.6338C110.684 19.0277 110.939 18.515 111.449 18.0957C111.964 17.6764 112.62 17.4668 113.418 17.4668C114.257 17.4668 114.936 17.6833 115.455 18.1162C115.979 18.5492 116.241 19.1029 116.241 19.7773H114.97C114.97 19.431 114.822 19.1325 114.525 18.8818C114.234 18.6312 113.865 18.5059 113.418 18.5059C112.958 18.5059 112.598 18.6061 112.338 18.8066C112.078 19.0072 111.948 19.2692 111.948 19.5928C111.948 19.8981 112.069 20.1283 112.311 20.2832C112.552 20.4382 112.987 20.5863 113.616 20.7275C114.25 20.8688 114.762 21.0374 115.154 21.2334C115.546 21.4294 115.836 21.6663 116.022 21.9443C116.214 22.2178 116.31 22.5527 116.31 22.9492C116.31 23.61 116.045 24.141 115.517 24.542C114.988 24.9385 114.302 25.1367 113.459 25.1367C112.867 25.1367 112.342 25.0319 111.887 24.8223C111.431 24.6126 111.073 24.321 110.813 23.9473C110.558 23.569 110.431 23.1611 110.431 22.7236H111.695C111.718 23.1475 111.887 23.4847 112.201 23.7354C112.52 23.9814 112.939 24.1045 113.459 24.1045C113.938 24.1045 114.32 24.0088 114.607 23.8174C114.899 23.6214 115.045 23.3617 115.045 23.0381ZM119.673 15.8125V17.6035H121.054V18.5811H119.673V23.168C119.673 23.4642 119.734 23.6875 119.857 23.8379C119.98 23.9837 120.19 24.0566 120.486 24.0566C120.632 24.0566 120.833 24.0293 121.088 23.9746V25C120.755 25.0911 120.432 25.1367 120.117 25.1367C119.552 25.1367 119.126 24.9658 118.839 24.624C118.552 24.2822 118.408 23.7969 118.408 23.168V18.5811H117.062V17.6035H118.408V15.8125H119.673ZM122.564 24.3369C122.564 24.1182 122.628 23.9359 122.756 23.79C122.888 23.6442 123.084 23.5713 123.344 23.5713C123.604 23.5713 123.799 23.6442 123.932 23.79C124.068 23.9359 124.137 24.1182 124.137 24.3369C124.137 24.5465 124.068 24.722 123.932 24.8633C123.799 25.0046 123.604 25.0752 123.344 25.0752C123.084 25.0752 122.888 25.0046 122.756 24.8633C122.628 24.722 122.564 24.5465 122.564 24.3369ZM133.728 25H132.456V16.5713L129.906 17.5078V16.3594L133.529 14.999H133.728V25ZM142.396 15.04V16.1133H142.163C141.179 16.1315 140.395 16.4232 139.812 16.9883C139.228 17.5534 138.891 18.3486 138.8 19.374C139.324 18.7725 140.039 18.4717 140.946 18.4717C141.812 18.4717 142.503 18.777 143.018 19.3877C143.537 19.9984 143.797 20.7868 143.797 21.7529C143.797 22.7783 143.517 23.5986 142.956 24.2139C142.4 24.8291 141.653 25.1367 140.714 25.1367C139.761 25.1367 138.989 24.7721 138.396 24.043C137.804 23.3092 137.508 22.3659 137.508 21.2129V20.7275C137.508 18.8955 137.897 17.4964 138.677 16.5303C139.461 15.5596 140.625 15.0628 142.17 15.04H142.396ZM140.734 19.5244C140.301 19.5244 139.903 19.6543 139.538 19.9141C139.174 20.1738 138.921 20.4997 138.779 20.8916V21.3564C138.779 22.1768 138.964 22.8376 139.333 23.3389C139.702 23.8402 140.162 24.0908 140.714 24.0908C141.284 24.0908 141.73 23.8812 142.054 23.4619C142.382 23.0426 142.546 22.4935 142.546 21.8145C142.546 21.1309 142.38 20.5794 142.047 20.1602C141.719 19.7363 141.281 19.5244 140.734 19.5244Z" fill="#1D1D1D"/>
</g>
</svg>
