<svg width="195" height="40" viewBox="0 0 195 40" fill="none" xmlns="http://www.w3.org/2000/svg">
<g id="location">
<path id="Combined-Shape" fill-rule="evenodd" clip-rule="evenodd" d="M15 27.2859L19.2392 22.9636C21.5869 20.5699 21.5869 16.685 19.2392 14.2912C16.8968 11.9029 13.1032 11.9029 10.7608 14.2912C8.41308 16.685 8.41308 20.5699 10.7608 22.9636L15 27.2859Z" stroke="#262626"/>
<path id="Oval-3" fill-rule="evenodd" clip-rule="evenodd" d="M15 20.5C16.1046 20.5 17 19.6046 17 18.5C17 17.3954 16.1046 16.5 15 16.5C13.8954 16.5 13 17.3954 13 18.5C13 19.6046 13.8954 20.5 15 20.5Z" stroke="#262626"/>
<path id="Rectangle 8 Copy" d="M0.5 2C0.5 1.17157 1.17157 0.5 2 0.5H193C193.828 0.5 194.5 1.17157 194.5 2V38C194.5 38.8284 193.828 39.5 193 39.5H2C1.17157 39.5 0.5 38.8284 0.5 38V2Z" stroke="#E0E0E0"/>
</g>
</svg>
